<svg width="728" height="374" viewBox="0 0 728 374" fill="none" xmlns="http://www.w3.org/2000/svg">
<path d="M66.9881 346.39H8.86841V183.658H66.3981C81.936 183.658 95.3596 186.915 106.669 193.431C118.027 199.894 126.78 209.217 132.926 221.401C139.121 233.532 142.219 248.073 142.219 265.024C142.219 281.975 139.146 296.543 133 308.727C126.853 320.857 118.15 330.181 106.89 336.696C95.63 343.159 82.3293 346.39 66.9881 346.39ZM49.8767 308.886H65.513C72.9869 308.886 79.3545 307.588 84.6158 304.992C89.9262 302.396 93.9582 297.92 96.7118 291.563C99.5145 285.207 100.916 276.36 100.916 265.024C100.916 253.688 99.4899 244.841 96.638 238.485C93.8353 232.128 89.7049 227.652 84.247 225.056C78.8382 222.46 72.2002 221.162 64.3329 221.162H49.8767V308.886Z" fill="#324B4F"/>
<path d="M161.783 346.39V224.341H202.496V346.39H161.783ZM182.14 211.627C176.632 211.627 171.912 209.667 167.978 205.747C164.045 201.827 162.078 197.113 162.078 191.604C162.078 186.094 164.045 181.38 167.978 177.46C171.912 173.54 176.632 171.58 182.14 171.58C187.696 171.58 192.416 173.54 196.301 177.46C200.234 181.38 202.201 186.094 202.201 191.604C202.201 197.113 200.234 201.827 196.301 205.747C192.416 209.667 187.696 211.627 182.14 211.627Z" fill="#324B4F"/>
<path d="M263.953 277.737V346.39H223.24V224.341H261.888V247.543H263.068C265.527 239.809 269.854 233.744 276.049 229.347C282.294 224.95 289.571 222.752 297.881 222.752C305.896 222.752 312.854 224.738 318.754 228.711C324.704 232.631 329.301 238.034 332.546 244.921C335.841 251.807 337.463 259.674 337.414 268.52V346.39H296.701V277.737C296.75 271.699 295.324 266.958 292.423 263.514C289.571 260.071 285.588 258.349 280.475 258.349C277.131 258.349 274.205 259.144 271.698 260.733C269.239 262.269 267.346 264.494 266.019 267.408C264.691 270.268 264.003 273.712 263.953 277.737Z" fill="#324B4F"/>
<path d="M398.521 347.98C390.457 347.98 383.032 345.702 376.247 341.146C369.51 336.59 364.102 329.677 360.021 320.407C355.989 311.137 353.973 299.456 353.973 285.366C353.973 270.639 356.087 258.667 360.316 249.45C364.593 240.233 370.101 233.479 376.837 229.188C383.622 224.897 390.752 222.752 398.226 222.752C403.832 222.752 408.749 223.811 412.977 225.93C417.206 227.996 420.746 230.777 423.598 234.273C426.45 237.716 428.614 241.504 430.089 245.636H430.679V183.658H471.392V346.39H430.974V326.367H430.089C428.515 330.498 426.253 334.207 423.303 337.491C420.402 340.722 416.862 343.291 412.682 345.198C408.552 347.053 403.832 347.98 398.521 347.98ZM413.567 314.289C417.304 314.289 420.5 313.123 423.156 310.793C425.86 308.409 427.925 305.072 429.351 300.781C430.826 296.437 431.564 291.299 431.564 285.366C431.564 279.327 430.826 274.162 429.351 269.871C427.925 265.527 425.86 262.216 423.156 259.939C420.5 257.608 417.304 256.442 413.567 256.442C409.83 256.442 406.634 257.608 403.979 259.939C401.373 262.216 399.357 265.527 397.931 269.871C396.554 274.162 395.866 279.327 395.866 285.366C395.866 291.404 396.554 296.596 397.931 300.94C399.357 305.23 401.373 308.541 403.979 310.872C406.634 313.15 409.83 314.289 413.567 314.289Z" fill="#324B4F"/>
<path d="M532.093 183.658V346.39H491.38V183.658H532.093Z" fill="#324B4F"/>
<path d="M205.5 194.264C205.5 207.984 195.626 214 181.914 214C168.202 214 157.5 207.984 157.5 194.264C157.5 180.544 168.288 171.5 182 171.5C195.712 171.5 205.5 180.544 205.5 194.264Z" fill="#FF8D3E"/>
<path d="M86.0099 53.205C85.6131 47.8951 83.753 43.7534 80.4297 40.7799C77.156 37.8063 72.171 36.3196 65.4747 36.3196C61.2089 36.3196 57.712 36.8771 54.9839 37.9922C52.3053 39.0542 50.3213 40.5144 49.0316 42.3728C47.742 44.2313 47.0723 46.3552 47.0227 48.7447C46.9235 50.7093 47.2459 52.4881 47.99 54.0811C48.7836 55.621 50.0237 57.0281 51.7101 58.3025C53.3966 59.5237 55.5543 60.6388 58.1832 61.6477C60.8121 62.6566 63.937 63.5592 67.558 64.3557L80.0577 67.2231C88.49 69.1346 95.7071 71.6568 101.709 74.7896C107.711 77.9225 112.621 81.6128 116.441 85.8607C120.26 90.0555 123.063 94.7813 124.848 100.038C126.684 105.295 127.626 111.03 127.676 117.242C127.626 127.968 125.121 137.048 120.161 144.482C115.201 151.916 108.108 157.571 98.8817 161.447C89.7053 165.323 78.6688 167.261 65.7723 167.261C52.5286 167.261 40.9713 165.164 31.1005 160.969C21.2793 156.774 13.6406 150.323 8.18434 141.614C2.77771 132.853 0.049602 121.649 0 108.003H39.2848C39.5328 112.994 40.6985 117.189 42.7818 120.587C44.865 123.986 47.7916 126.561 51.5613 128.313C55.3807 130.065 59.9193 130.942 65.1771 130.942C69.5917 130.942 73.287 130.357 76.2631 129.189C79.2393 128.021 81.4961 126.402 83.0338 124.331C84.5715 122.26 85.3651 119.897 85.4147 117.242C85.3651 114.746 84.5963 112.569 83.1082 110.711C81.6698 108.799 79.2889 107.1 75.9655 105.613C72.6422 104.074 68.1532 102.64 62.4986 101.312L47.3203 97.8079C33.8286 94.6751 23.189 89.4449 15.4014 82.1173C7.66352 74.7365 3.81936 64.6743 3.86896 51.9306C3.81936 41.5763 6.39866 32.523 11.6069 24.7706C16.8647 16.9651 24.1314 10.8852 33.407 6.53115C42.7322 2.17705 53.4214 0 65.4747 0C77.776 0 88.4156 2.2036 97.3936 6.6108C106.372 11.018 113.291 17.2306 118.152 25.2485C123.063 33.2133 125.543 42.5321 125.592 53.205H86.0099Z" fill="#324B4F"/>
<path d="M212.16 43.01V74.8693H136.864V43.01H212.16ZM151.447 13.6995H192.518V126.003C192.518 127.703 192.791 129.136 193.336 130.304C193.882 131.419 194.725 132.269 195.866 132.853C197.007 133.384 198.47 133.65 200.256 133.65C201.496 133.65 202.934 133.49 204.571 133.172C206.258 132.853 207.498 132.588 208.291 132.375L214.244 163.279C212.408 163.863 209.779 164.58 206.357 165.429C202.984 166.279 198.966 166.836 194.304 167.102C184.879 167.633 176.968 166.597 170.569 163.996C164.17 161.341 159.359 157.172 156.135 151.491C152.911 145.809 151.348 138.694 151.447 130.145V13.6995Z" fill="#324B4F"/>
<path d="M282.453 167.58C270.25 167.58 259.735 165.084 250.906 160.093C242.126 155.048 235.355 147.827 230.594 138.429C225.881 128.977 223.525 117.667 223.525 104.498C223.525 91.8609 225.906 80.8163 230.668 71.3648C235.43 61.9132 242.151 54.559 250.831 49.3022C259.512 44.0454 269.754 41.4171 281.56 41.4171C290.191 41.4171 298.003 42.8507 304.997 45.718C311.991 48.5854 317.968 52.7536 322.928 58.2228C327.888 63.6389 331.707 70.2231 334.386 77.9756C337.064 85.728 338.404 94.4627 338.404 104.18V114.375H236.323V90.1617H300.607C300.557 86.6572 299.714 83.5775 298.077 80.9225C296.49 78.2145 294.332 76.1171 291.604 74.6303C288.926 73.0905 285.875 72.3205 282.453 72.3205C279.129 72.3205 276.079 73.0905 273.301 74.6303C270.523 76.1171 268.291 78.1879 266.605 80.8429C264.968 83.4978 264.1 86.6041 264.001 90.1617V116.286C264.001 120.216 264.769 123.72 266.307 126.8C267.845 129.88 270.052 132.296 272.929 134.048C275.806 135.8 279.278 136.676 283.345 136.676C286.173 136.676 288.752 136.251 291.083 135.402C293.464 134.552 295.498 133.331 297.184 131.738C298.871 130.092 300.111 128.127 300.905 125.844H338.404C337.114 134.34 334.064 141.721 329.252 147.986C324.441 154.199 318.067 159.031 310.131 162.482C302.244 165.881 293.018 167.58 282.453 167.58Z" fill="#324B4F"/>
<path d="M467.474 43.01L429.082 165.35H381.464L343.072 43.01H386.226L404.678 123.933H405.869L424.321 43.01H467.474Z" fill="#324B4F"/>
<path d="M530.438 167.58C518.236 167.58 507.72 165.084 498.891 160.093C490.112 155.048 483.341 147.827 478.579 138.429C473.867 128.977 471.511 117.667 471.511 104.498C471.511 91.8609 473.892 80.8163 478.653 71.3648C483.415 61.9132 490.136 54.559 498.817 49.3022C507.497 44.0454 517.74 41.4171 529.545 41.4171C538.176 41.4171 545.988 42.8507 552.982 45.718C559.976 48.5854 565.953 52.7536 570.913 58.2228C575.873 63.6389 579.693 70.2231 582.371 77.9756C585.05 85.728 586.389 94.4627 586.389 104.18V114.375H484.308V90.1617H548.592C548.543 86.6572 547.699 83.5775 546.063 80.9225C544.475 78.2145 542.318 76.1171 539.59 74.6303C536.911 73.0905 533.861 72.3205 530.438 72.3205C527.115 72.3205 524.064 73.0905 521.286 74.6303C518.509 76.1171 516.277 78.1879 514.59 80.8429C512.953 83.4978 512.085 86.6041 511.986 90.1617V116.286C511.986 120.216 512.755 123.72 514.292 126.8C515.83 129.88 518.037 132.296 520.914 134.048C523.791 135.8 527.263 136.676 531.331 136.676C534.158 136.676 536.737 136.251 539.069 135.402C541.45 134.552 543.483 133.331 545.17 131.738C546.856 130.092 548.096 128.127 548.89 125.844H586.389C585.099 134.34 582.049 141.721 577.237 147.986C572.426 154.199 566.052 159.031 558.116 162.482C550.229 165.881 541.003 167.58 530.438 167.58Z" fill="#324B4F"/>
<path d="M644.219 96.5336V165.35H603.148V43.01H642.136V66.2673H643.326C645.806 58.5149 650.171 52.435 656.421 48.0278C662.72 43.6206 670.061 41.4171 678.444 41.4171C686.529 41.4171 693.548 43.4083 699.5 47.3907C705.502 51.32 710.14 56.736 713.414 63.6389C716.737 70.5417 718.374 78.4269 718.324 87.2944V165.35H677.254V96.5336C677.303 90.4803 675.865 85.728 672.938 82.2766C670.061 78.8251 666.044 77.0994 660.885 77.0994C657.512 77.0994 654.561 77.8959 652.031 79.4889C649.551 81.0287 647.641 83.2589 646.302 86.1793C644.963 89.0466 644.268 92.4981 644.219 96.5336Z" fill="#324B4F"/>
<path d="M727.194 265.969C727.194 319.024 688.987 342.287 635.932 342.287C582.877 342.287 541.468 319.024 541.468 265.969C541.468 212.914 582.877 179.874 635.932 179.874C688.987 179.874 727.194 212.914 727.194 265.969Z" fill="#FF8D3E"/>
<path d="M541.901 278.914L583.098 295.659L611.175 303.742L632.954 307.784L639.252 303.742L649.748 309.227L685.172 295.659L725.582 271.986V285.266L696.718 302.299L665.754 316.444L685.172 341.272L694.094 366.388L684.123 373.028L673.102 349.644L663.918 333.766L649.748 321.064L627.444 328.858L617.21 321.064L598.842 327.415L585.197 334.632L578.637 371.873L569.453 371.296L572.339 352.531L574.176 346.757L576.538 342.138L581.523 334.343L588.871 327.415L605.402 317.888L573.389 307.784L543.737 292.483L541.901 278.914Z" fill="#975495"/>
<path d="M606.567 317.46C591.977 325.31 584.733 330.315 577.492 340.885" stroke="black"/>
<path d="M616.693 319.071C576.86 335.847 573.712 335.675 569.707 371.423" stroke="black"/>
<path d="M617.26 320.056C580.257 334.351 573.166 336.722 570.982 371.564" stroke="black"/>
<line y1="-0.5" x2="1.43599" y2="-0.5" transform="matrix(0.980791 0.19506 -0.197177 0.980368 569.708 371.424)" stroke="black"/>
<path d="M585.134 334.693C581.346 349.071 578.202 370.485 578.628 372.194" stroke="black"/>
<path d="M570.85 371.564L578.482 371.986" stroke="black"/>
<path d="M684.281 371.753L685.232 371.57" stroke="black"/>
<path d="M652.216 321.042C663.74 326.945 668.359 333.217 674.826 347.409" stroke="black"/>
<path d="M649.951 321.605C661.476 327.508 667.968 334.978 674.435 349.17" stroke="black"/>
<path d="M664.811 317.946C678.793 330.899 685.512 342.156 693.399 366.417" stroke="black"/>
<path d="M685.351 371.706C680.602 361.76 678.114 356.258 674.718 347.078" stroke="black"/>
<path d="M684.483 371.846C679.734 361.9 677.69 357.946 674.294 348.766" stroke="black"/>
<path d="M685.332 371.705C688.472 370.332 688.41 370.975 693.257 366.357" stroke="black"/>
<path d="M617.626 321.21C622.558 323.244 624.718 325.248 628.382 329.091" stroke="black"/>
<path d="M638.205 305.28C633 314.591 630.943 319.839 628.678 329.243" stroke="black"/>
<path d="M617.423 321.247C617.786 315.811 620.172 313.139 625.632 308.581" stroke="black"/>
<path d="M638.221 305.205C633.339 308.499 630.587 309.477 625.532 308.634" stroke="black"/>
<path d="M629.257 326.864L631.14 329.054" stroke="black"/>
<line y1="-0.5" x2="14.1849" y2="-0.5" transform="matrix(-0.917885 0.396846 -0.400611 -0.916248 643.866 323.012)" stroke="black"/>
<line y1="-0.5" x2="13.2779" y2="-0.5" transform="matrix(0.788733 0.614736 -0.619026 0.785371 633.393 315.132)" stroke="black"/>
<path d="M639.337 319.635C645.139 316.091 647.798 314.142 650.375 308.517" stroke="black"/>
<path d="M638.063 305.421C638.887 304.992 639.142 304.339 639.214 303.241" stroke="black"/>
<path d="M650.6 308.504C646.134 307.094 643.657 305.984 639.278 303.438" stroke="black"/>
<path d="M617.542 319.212C603.414 317.77 554.6 302.537 543.737 291.039" stroke="black"/>
<path d="M624.844 309.349C604.632 305.421 552.816 289.177 542.163 279.203" stroke="black"/>
<path d="M643.158 322.308C659.807 320.43 710.794 297.177 725.057 285.265" stroke="black"/>
<path d="M649.748 309.938C664.309 307.674 714.496 282.831 725.319 271.986" stroke="black"/>
</svg>
