<svg width="211" height="28" viewBox="0 0 211 28" fill="none" xmlns="http://www.w3.org/2000/svg">
<path d="M144.312 24.159H136V1.66916H144.228C146.45 1.66916 148.37 2.1194 149.987 3.01987C151.611 3.91302 152.863 5.2015 153.742 6.8853C154.628 8.56179 155.071 10.5714 155.071 12.9141C155.071 15.2568 154.632 17.27 153.753 18.9538C152.874 20.6303 151.629 21.9188 150.019 22.8192C148.408 23.7124 146.506 24.159 144.312 24.159ZM141.865 18.9758H144.101C145.17 18.9758 146.081 18.7964 146.833 18.4377C147.593 18.079 148.169 17.4603 148.563 16.5818C148.964 15.7033 149.164 14.4807 149.164 12.9141C149.164 11.3474 148.96 10.1248 148.552 9.24629C148.152 8.36779 147.561 7.74917 146.78 7.39045C146.007 7.03172 145.057 6.85236 143.932 6.85236H141.865V18.9758Z" fill="#324B4F"/>
<path d="M157.869 24.159V7.29161H163.692V24.159H157.869ZM160.78 5.5346C159.993 5.5346 159.318 5.26373 158.755 4.72198C158.193 4.18023 157.911 3.52867 157.911 2.7673C157.911 2.00593 158.193 1.35437 158.755 0.812619C159.318 0.270873 159.993 0 160.78 0C161.575 0 162.25 0.270873 162.806 0.812619C163.368 1.35437 163.65 2.00593 163.65 2.7673C163.65 3.52867 163.368 4.18023 162.806 4.72198C162.25 5.26373 161.575 5.5346 160.78 5.5346Z" fill="#324B4F"/>
<path d="M172.481 14.6711V24.159H166.658V7.29161H172.186V10.4982H172.355C172.706 9.42932 173.325 8.59107 174.211 7.98344C175.104 7.37581 176.145 7.07199 177.333 7.07199C178.48 7.07199 179.475 7.34652 180.318 7.89559C181.169 8.43734 181.827 9.18407 182.291 10.1358C182.762 11.0875 182.994 12.1747 182.987 13.3972V24.159H177.165V14.6711C177.172 13.8365 176.968 13.1813 176.553 12.7054C176.145 12.2296 175.575 11.9916 174.844 11.9916C174.366 11.9916 173.947 12.1014 173.589 12.3211C173.237 12.5334 172.966 12.8409 172.776 13.2435C172.587 13.6388 172.488 14.1147 172.481 14.6711Z" fill="#324B4F"/>
<path d="M191.726 24.3786C190.573 24.3786 189.511 24.0638 188.541 23.4342C187.577 22.8046 186.804 21.8492 186.22 20.5681C185.644 19.2869 185.355 17.6726 185.355 15.7253C185.355 13.6901 185.658 12.0356 186.262 10.7617C186.874 9.48788 187.662 8.55447 188.625 7.96148C189.596 7.36848 190.615 7.07199 191.684 7.07199C192.486 7.07199 193.189 7.21841 193.794 7.51124C194.399 7.79676 194.905 8.1811 195.313 8.66428C195.721 9.14014 196.03 9.66359 196.241 10.2346H196.325V1.66916H202.148V24.159H196.368V21.3917H196.241C196.016 21.9627 195.693 22.4752 195.271 22.9291C194.856 23.3756 194.349 23.7307 193.752 23.9942C193.161 24.2505 192.486 24.3786 191.726 24.3786ZM193.878 19.7225C194.413 19.7225 194.87 19.5614 195.25 19.2393C195.636 18.9099 195.932 18.4487 196.136 17.8557C196.347 17.2554 196.452 16.5452 196.452 15.7253C196.452 14.8907 196.347 14.1769 196.136 13.5839C195.932 12.9836 195.636 12.5261 195.25 12.2113C194.87 11.8891 194.413 11.7281 193.878 11.7281C193.344 11.7281 192.887 11.8891 192.507 12.2113C192.134 12.5261 191.846 12.9836 191.642 13.5839C191.445 14.1769 191.347 14.8907 191.347 15.7253C191.347 16.5599 191.445 17.2773 191.642 17.8776C191.846 18.4706 192.134 18.9282 192.507 19.2503C192.887 19.5651 193.344 19.7225 193.878 19.7225Z" fill="#324B4F"/>
<path d="M210.829 1.66916V24.159H205.007V1.66916H210.829Z" fill="#324B4F"/>
<path d="M12.3008 7.35297C12.244 6.61914 11.978 6.04676 11.5027 5.63581C11.0345 5.22487 10.3216 5.01939 9.3639 5.01939C8.75382 5.01939 8.25371 5.09645 7.86354 5.25055C7.48048 5.39732 7.19672 5.59912 7.01228 5.85596C6.82784 6.1128 6.73207 6.40633 6.72498 6.73656C6.71079 7.00807 6.7569 7.25391 6.86331 7.47405C6.97681 7.68686 7.15416 7.88133 7.39535 8.05745C7.63654 8.22623 7.94513 8.38033 8.3211 8.51976C8.69707 8.65919 9.14399 8.78394 9.66184 8.89401L11.4495 9.29028C12.6554 9.55446 13.6876 9.90303 14.546 10.336C15.4043 10.7689 16.1066 11.279 16.6528 11.866C17.1991 12.4457 17.5999 13.0989 17.8552 13.8253C18.1177 14.5518 18.2525 15.3444 18.2596 16.203C18.2525 17.6853 17.8943 18.9401 17.1849 19.9675C16.4755 20.9949 15.4611 21.7764 14.1416 22.3121C12.8292 22.8478 11.2509 23.1156 9.40646 23.1156C7.5124 23.1156 5.85953 22.8258 4.44785 22.246C3.04327 21.6663 1.95081 20.7747 1.17049 19.5712C0.397256 18.3604 0.00709385 16.812 0 14.9261H5.61834C5.65381 15.6159 5.82051 16.1956 6.11846 16.6653C6.4164 17.1349 6.83494 17.4908 7.37407 17.733C7.9203 17.9752 8.56938 18.0962 9.32133 18.0962C9.95269 18.0962 10.4812 18.0155 10.9068 17.8541C11.3324 17.6926 11.6552 17.4688 11.8751 17.1826C12.095 16.8964 12.2085 16.5699 12.2156 16.203C12.2085 15.8581 12.0986 15.5572 11.8858 15.3003C11.68 15.0362 11.3395 14.8013 10.8642 14.5959C10.389 14.3831 9.74697 14.1849 8.93827 14.0015L6.76754 13.5171C4.83801 13.0842 3.31638 12.3614 2.20264 11.3487C1.096 10.3287 0.546227 8.93804 0.553321 7.17685C0.546227 5.74589 0.915108 4.49471 1.65996 3.42332C2.41191 2.34459 3.45116 1.50435 4.77772 0.90261C6.11136 0.30087 7.64009 0 9.3639 0C11.1232 0 12.6448 0.304539 13.9288 0.913618C15.2128 1.5227 16.2024 2.38128 16.8976 3.48936C17.5999 4.5901 17.9546 5.87797 17.9617 7.35297H12.3008Z" fill="#324B4F"/>
<path d="M30.3422 5.94402V10.347H19.5737V5.94402H30.3422ZM21.6593 1.89328H27.533V17.4138C27.533 17.6486 27.5721 17.8467 27.6501 18.0082C27.7281 18.1623 27.8487 18.2797 28.0119 18.3604C28.175 18.4338 28.3843 18.4705 28.6397 18.4705C28.817 18.4705 29.0228 18.4485 29.2569 18.4044C29.498 18.3604 29.6754 18.3237 29.7889 18.2944L30.6402 22.5653C30.3777 22.646 30.0017 22.745 29.5122 22.8625C29.0299 22.9799 28.4553 23.0569 27.7884 23.0936C26.4406 23.167 25.3091 23.0239 24.394 22.6643C23.4789 22.2974 22.7908 21.7214 22.3297 20.9362C21.8686 20.151 21.6451 19.1676 21.6593 17.9862V1.89328Z" fill="#324B4F"/>
<path d="M40.3951 23.1597C38.65 23.1597 37.1461 22.8148 35.8834 22.125C34.6278 21.4278 33.6595 20.4298 32.9785 19.1309C32.3046 17.8247 31.9676 16.2617 31.9676 14.4418C31.9676 12.6953 32.3081 11.1689 32.9891 9.86267C33.6701 8.55645 34.6313 7.5401 35.8728 6.81361C37.1142 6.08712 38.5791 5.72387 40.2674 5.72387C41.5017 5.72387 42.619 5.92201 43.6193 6.31827C44.6195 6.71454 45.4743 7.2906 46.1837 8.04644C46.8931 8.79495 47.4393 9.7049 47.8224 10.7763C48.2054 11.8477 48.397 13.0548 48.397 14.3977V15.8067H33.7978V12.4604H42.9915C42.9844 11.9761 42.8638 11.5505 42.6297 11.1836C42.4027 10.8093 42.0941 10.5194 41.7039 10.314C41.3209 10.1012 40.8846 9.99476 40.3951 9.99476C39.9198 9.99476 39.4835 10.1012 39.0863 10.314C38.689 10.5194 38.3698 10.8056 38.1286 11.1726C37.8945 11.5395 37.7704 11.9688 37.7562 12.4604V16.0709C37.7562 16.6139 37.8661 17.0982 38.0861 17.5238C38.306 17.9495 38.6216 18.2834 39.0331 18.5255C39.4445 18.7677 39.9411 18.8888 40.5228 18.8888C40.9271 18.8888 41.296 18.8301 41.6294 18.7127C41.9699 18.5952 42.2608 18.4265 42.502 18.2063C42.7432 17.9788 42.9205 17.7073 43.034 17.3918H48.397C48.2125 18.5659 47.7763 19.5859 47.0882 20.4518C46.4001 21.3104 45.4885 21.9782 44.3535 22.4552C43.2256 22.9248 41.9061 23.1597 40.3951 23.1597Z" fill="#324B4F"/>
<path d="M66.8561 5.94402L61.3654 22.8515H54.5553L49.0647 5.94402H55.2363L57.8753 17.1276H58.0455L60.6844 5.94402H66.8561Z" fill="#324B4F"/>
<path d="M75.8609 23.1597C74.1158 23.1597 72.6119 22.8148 71.3492 22.125C70.0936 21.4278 69.1252 20.4298 68.4442 19.1309C67.7703 17.8247 67.4334 16.2617 67.4334 14.4418C67.4334 12.6953 67.7739 11.1689 68.4549 9.86267C69.1359 8.55645 70.0971 7.5401 71.3385 6.81361C72.58 6.08712 74.0448 5.72387 75.7332 5.72387C76.9675 5.72387 78.0848 5.92201 79.085 6.31827C80.0853 6.71454 80.9401 7.2906 81.6495 8.04644C82.3588 8.79495 82.9051 9.7049 83.2881 10.7763C83.6712 11.8477 83.8627 13.0548 83.8627 14.3977V15.8067H69.2636V12.4604H78.4572C78.4501 11.9761 78.3295 11.5505 78.0954 11.1836C77.8684 10.8093 77.5598 10.5194 77.1697 10.314C76.7866 10.1012 76.3503 9.99476 75.8609 9.99476C75.3856 9.99476 74.9493 10.1012 74.552 10.314C74.1548 10.5194 73.8356 10.8056 73.5944 11.1726C73.3603 11.5395 73.2361 11.9688 73.2219 12.4604V16.0709C73.2219 16.6139 73.3319 17.0982 73.5518 17.5238C73.7717 17.9495 74.0874 18.2834 74.4988 18.5255C74.9103 18.7677 75.4069 18.8888 75.9886 18.8888C76.3929 18.8888 76.7618 18.8301 77.0952 18.7127C77.4357 18.5952 77.7266 18.4265 77.9677 18.2063C78.2089 17.9788 78.3863 17.7073 78.4998 17.3918H83.8627C83.6783 18.5659 83.242 19.5859 82.5539 20.4518C81.8658 21.3104 80.9543 21.9782 79.8192 22.4552C78.6913 22.9248 77.3719 23.1597 75.8609 23.1597Z" fill="#324B4F"/>
<path d="M92.1333 13.341V22.8515H86.2596V5.94402H91.8354V9.15819H92.0056C92.3603 8.0868 92.9846 7.24657 93.8784 6.63749C94.7793 6.02841 95.8292 5.72387 97.0281 5.72387C98.1844 5.72387 99.1881 5.99906 100.039 6.54943C100.898 7.09246 101.561 7.84097 102.029 8.79495C102.505 9.74893 102.739 10.8387 102.732 12.0642V22.8515H96.8578V13.341C96.8649 12.5045 96.6592 11.8477 96.2406 11.3707C95.8292 10.8937 95.2546 10.6552 94.5168 10.6552C94.0345 10.6552 93.6124 10.7653 93.2506 10.9854C92.8959 11.1982 92.6228 11.5064 92.4312 11.9101C92.2397 12.3063 92.1404 12.7833 92.1333 13.341Z" fill="#324B4F"/>
<path d="M131.111 12.104C131.111 19.5628 125.739 22.8333 118.28 22.8333C110.822 22.8333 105 19.5628 105 12.104C105 4.64506 110.822 0 118.28 0C125.739 0 131.111 4.64506 131.111 12.104Z" fill="#FF8D3E"/>
<path d="M105.061 13.9239L110.853 16.2779L114.8 17.4144L117.862 17.9826L118.747 17.4144L120.223 18.1855L125.203 16.2779L130.884 12.9498V14.8168L126.826 17.2114L122.473 19.2002L125.203 22.6906L126.457 26.2216L125.055 27.1551L123.506 23.8676L122.215 21.6354L120.223 19.8495L117.087 20.9454L115.648 19.8495L113.066 20.7424L111.148 21.7571L110.226 26.9928L108.934 26.9116L109.34 24.2735L109.598 23.4617L109.93 22.8124L110.631 21.7165L111.664 20.7424L113.988 19.4031L109.488 17.9826L105.319 15.8315L105.061 13.9239Z" fill="#975495"/>
<path d="M114.152 19.343C112.101 20.4465 111.082 21.1502 110.064 22.6362" stroke="black" stroke-width="0.2"/>
<path d="M115.576 19.5694C109.976 21.9278 109.533 21.9037 108.97 26.9295" stroke="black" stroke-width="0.2"/>
<path d="M115.655 19.7079C110.453 21.7176 109.456 22.051 109.149 26.9493" stroke="black" stroke-width="0.2"/>
<line y1="-0.1" x2="0.201883" y2="-0.1" transform="matrix(0.980791 0.19506 -0.197177 0.980368 108.97 26.9295)" stroke="black" stroke-width="0.2"/>
<path d="M111.139 21.7657C110.606 23.787 110.164 26.7976 110.224 27.0379" stroke="black" stroke-width="0.2"/>
<path d="M109.131 26.9493L110.204 27.0086" stroke="black" stroke-width="0.2"/>
<path d="M125.078 26.9758L125.211 26.9502" stroke="black" stroke-width="0.2"/>
<path d="M120.57 19.8465C122.19 20.6764 122.839 21.5582 123.748 23.5533" stroke="black" stroke-width="0.2"/>
<path d="M120.251 19.9257C121.872 20.7556 122.784 21.8058 123.694 23.8009" stroke="black" stroke-width="0.2"/>
<path d="M122.341 19.4112C124.306 21.2322 125.251 22.8148 126.36 26.2256" stroke="black" stroke-width="0.2"/>
<path d="M125.228 26.9691C124.561 25.571 124.211 24.7973 123.733 23.5067" stroke="black" stroke-width="0.2"/>
<path d="M125.106 26.9889C124.438 25.5907 124.151 25.0347 123.674 23.7441" stroke="black" stroke-width="0.2"/>
<path d="M125.225 26.9691C125.667 26.776 125.658 26.8665 126.34 26.2173" stroke="black" stroke-width="0.2"/>
<path d="M115.707 19.8702C116.4 20.1561 116.704 20.4378 117.219 20.9781" stroke="black" stroke-width="0.2"/>
<path d="M118.6 17.6306C117.868 18.9396 117.579 19.6773 117.261 20.9994" stroke="black" stroke-width="0.2"/>
<path d="M115.678 19.8754C115.729 19.1112 116.065 18.7355 116.832 18.0947" stroke="black" stroke-width="0.2"/>
<path d="M118.602 17.6201C117.916 18.0832 117.529 18.2207 116.818 18.1022" stroke="black" stroke-width="0.2"/>
<path d="M117.342 20.665L117.607 20.9729" stroke="black" stroke-width="0.2"/>
<line y1="-0.1" x2="1.99422" y2="-0.1" transform="matrix(-0.917885 0.396846 -0.400611 -0.916248 119.396 20.1235)" stroke="black" stroke-width="0.2"/>
<line y1="-0.1" x2="1.86671" y2="-0.1" transform="matrix(0.788733 0.614736 -0.619026 0.785371 117.924 19.0155)" stroke="black" stroke-width="0.2"/>
<path d="M118.759 19.6488C119.575 19.1506 119.949 18.8766 120.311 18.0858" stroke="black" stroke-width="0.2"/>
<path d="M118.58 17.6505C118.696 17.5901 118.732 17.4983 118.742 17.3439" stroke="black" stroke-width="0.2"/>
<path d="M120.343 18.0839C119.715 17.8856 119.367 17.7296 118.751 17.3717" stroke="black" stroke-width="0.2"/>
<path d="M115.695 19.5893C113.709 19.3865 106.846 17.2449 105.319 15.6285" stroke="black" stroke-width="0.2"/>
<path d="M116.722 18.2027C113.88 17.6504 106.595 15.3668 105.098 13.9645" stroke="black" stroke-width="0.2"/>
<path d="M119.296 20.0246C121.637 19.7606 128.805 16.4915 130.81 14.8168" stroke="black" stroke-width="0.2"/>
<path d="M120.223 18.2855C122.27 17.9672 129.326 14.4745 130.847 12.9498" stroke="black" stroke-width="0.2"/>
</svg>
