<svg width="187" height="195" viewBox="0 0 187 195" fill="none" xmlns="http://www.w3.org/2000/svg">
<path d="M186.194 86.9692C186.194 140.024 147.987 163.287 94.932 163.287C41.8769 163.287 0.468262 140.024 0.468262 86.9692C0.468262 33.914 41.8769 0.873718 94.932 0.873718C147.987 0.873718 186.194 33.914 186.194 86.9692Z" fill="#FF8D3E"/>
<path d="M0.900635 99.9144L42.0978 116.659L70.1748 124.742L91.9542 128.784L98.2518 124.742L108.748 130.227L144.172 116.659L184.582 92.9858V106.266L155.718 123.298L124.754 137.444L144.172 162.272L153.094 187.388L143.123 194.028L132.102 170.644L122.918 154.766L108.748 142.063L86.4437 149.858L76.21 142.063L57.8419 148.415L44.197 155.632L37.6369 192.873L28.4529 192.296L31.3393 173.531L33.1761 167.757L35.5377 163.138L40.5233 155.343L47.8706 148.415L64.4019 138.888L32.3889 128.784L2.73745 113.483L0.900635 99.9144Z" fill="#975495"/>
<path d="M65.5665 138.46C50.9772 146.31 43.7329 151.315 36.4916 161.885" stroke="black"/>
<path d="M75.6931 140.071C35.8597 156.847 32.7116 156.675 28.7075 192.423" stroke="black"/>
<path d="M76.2596 141.056C39.2569 155.351 32.166 157.722 29.9816 192.564" stroke="black"/>
<line y1="-0.5" x2="1.43599" y2="-0.5" transform="matrix(0.980791 0.19506 -0.197177 0.980368 28.708 192.424)" stroke="black"/>
<path d="M44.1339 155.693C40.3462 170.07 37.2017 191.485 37.6283 193.194" stroke="black"/>
<path d="M29.8499 192.564L37.4824 192.986" stroke="black"/>
<path d="M143.281 192.753L144.232 192.57" stroke="black"/>
<path d="M111.216 142.042C122.74 147.945 127.359 154.217 133.826 168.409" stroke="black"/>
<path d="M108.951 142.605C120.476 148.508 126.968 155.978 133.435 170.17" stroke="black"/>
<path d="M123.811 138.946C137.793 151.898 144.512 163.156 152.399 187.417" stroke="black"/>
<path d="M144.351 192.706C139.602 182.76 137.114 177.257 133.718 168.078" stroke="black"/>
<path d="M143.483 192.846C138.734 182.9 136.69 178.946 133.294 169.766" stroke="black"/>
<path d="M144.332 192.705C147.472 191.332 147.41 191.975 152.257 187.357" stroke="black"/>
<path d="M76.6262 142.21C81.5581 144.244 83.7182 146.247 87.3819 150.091" stroke="black"/>
<path d="M97.2048 126.28C92.0003 135.591 89.9433 140.839 87.678 150.243" stroke="black"/>
<path d="M76.4234 142.247C76.7857 136.811 79.1724 134.139 84.6318 129.581" stroke="black"/>
<path d="M97.2209 126.205C92.3392 129.499 89.5867 130.477 84.5321 129.634" stroke="black"/>
<path d="M88.257 147.864L90.1403 150.054" stroke="black"/>
<line y1="-0.5" x2="14.1849" y2="-0.5" transform="matrix(-0.917885 0.396846 -0.400611 -0.916248 102.866 144.012)" stroke="black"/>
<line y1="-0.5" x2="13.2779" y2="-0.5" transform="matrix(0.788733 0.614736 -0.619026 0.785371 92.3928 136.132)" stroke="black"/>
<path d="M98.3367 140.635C104.139 137.091 106.798 135.142 109.375 129.517" stroke="black"/>
<path d="M97.0632 126.421C97.8875 125.992 98.1417 125.339 98.2141 124.241" stroke="black"/>
<path d="M109.6 129.504C105.134 128.094 102.657 126.984 98.2785 124.438" stroke="black"/>
<path d="M76.5424 140.212C62.4141 138.77 13.6 123.537 2.7373 112.039" stroke="black"/>
<path d="M83.8437 130.349C63.6321 126.421 11.8163 110.177 1.16314 100.203" stroke="black"/>
<path d="M102.158 143.308C118.807 141.43 169.794 118.177 184.057 106.265" stroke="black"/>
<path d="M108.748 130.938C123.309 128.674 173.496 103.831 184.319 92.9856" stroke="black"/>
</svg>
